<svg width="120" height="131" viewBox="0 0 120 131" fill="none" xmlns="http://www.w3.org/2000/svg">
<path d="M6.2901 91.3094C2.63902 83.6132 0.587463 75.0012 0.587463 65.9141C0.587463 57.7195 2.24494 49.9189 5.24694 42.8254" stroke="#010101" stroke-width="1.15907" stroke-miterlimit="10"/>
<path d="M113.922 41.3418C117.329 48.8294 119.23 57.1515 119.23 65.9141C119.23 75.4649 116.97 84.4825 112.971 92.4801" stroke="#010101" stroke-width="1.15907" stroke-miterlimit="10"/>
<path d="M10.3004 23.863L13.117 20.9074C13.6385 20.3626 14.1949 19.9801 14.7976 19.7483C15.4003 19.5281 16.0031 19.4701 16.6058 19.5976C17.2085 19.7251 17.7764 20.038 18.298 20.548C18.8196 21.0464 19.1673 21.5912 19.318 22.1823C19.4803 22.7735 19.4571 23.3762 19.26 23.9905C19.063 24.6048 18.7153 25.1843 18.1937 25.7291L16.6058 27.3982L19.6657 30.3074L18.4371 31.594L10.3004 23.863ZM17.081 24.6048C17.4983 24.1643 17.7069 23.6891 17.7069 23.1791C17.7069 22.6691 17.4983 22.2055 17.081 21.8114C16.6521 21.4058 16.1885 21.2203 15.6785 21.2551C15.1801 21.2898 14.7165 21.5217 14.2992 21.9621L12.6765 23.6659L15.4583 26.3086L17.081 24.6048Z" fill="#010101"/>
<path d="M19.7121 14.8338L21.1609 13.7906L26.794 21.626L30.7349 18.7978L31.6621 20.0844L26.2724 23.9557L19.7237 14.8338H19.7121Z" fill="#010101"/>
<path d="M31.9634 7.27666L33.9686 6.36099L42.2212 14.9381L40.4942 15.7263L38.6629 13.7907L34.5134 15.6915L34.7684 18.3458L33.0414 19.134L31.975 7.28825L31.9634 7.27666ZM37.5154 12.5736L33.7832 8.60959L34.3164 14.0341L37.5038 12.5736H37.5154Z" fill="#010101"/>
<path d="M45.258 8.98045L40.077 3.89212L42.0242 3.4285L45.6985 7.09117L47.298 2.16511L49.2452 1.70148L46.9619 8.58637L48.1441 13.5124L46.4287 13.9297L45.2464 9.00364L45.258 8.98045Z" fill="#010101"/>
<path d="M58.3439 0.809015L60.2564 0.901741L62.8527 10.07L66.3763 1.21469L68.2888 1.30742L63.7452 12.3186L61.7632 12.2143L58.3671 0.797424L58.3439 0.809015Z" fill="#010101"/>
<path d="M72.6701 2.22308L74.4087 2.59399L72.0674 13.5704L70.3288 13.1995L72.6701 2.22308Z" fill="#010101"/>
<path d="M79.7984 3.9269L83.2177 5.28302C84.2956 5.71188 85.1533 6.303 85.7792 7.0564C86.4051 7.8098 86.776 8.66751 86.9035 9.61795C87.031 10.58 86.8919 11.5768 86.4747 12.6084C86.069 13.6399 85.4895 14.4513 84.7361 15.0656C83.9827 15.6799 83.1249 16.0508 82.1513 16.1667C81.1777 16.2826 80.1461 16.1319 79.0682 15.7031L75.6489 14.347L79.7984 3.91531V3.9269ZM79.6825 14.2542C80.4243 14.544 81.1198 14.6483 81.792 14.5556C82.4643 14.4629 83.0554 14.1963 83.577 13.7558C84.0986 13.3154 84.5158 12.7127 84.8172 11.9477C85.1186 11.1827 85.2345 10.4641 85.1649 9.78022C85.0838 9.09637 84.8404 8.50524 84.4115 7.98366C83.9827 7.46208 83.4031 7.0564 82.6729 6.76663L80.8763 6.04801L77.8975 13.5356L79.6941 14.2427L79.6825 14.2542Z" fill="#010101"/>
<path d="M93.0581 9.96567L99.2128 14.0688L98.3319 15.3901L93.6493 12.2722L91.8643 14.9613L96.292 17.9053L95.4111 19.2267L90.9834 16.2826L89.1753 18.9948L93.8579 22.1128L92.977 23.4341L86.8223 19.331L93.0466 9.98885L93.0581 9.96567Z" fill="#010101"/>
<path d="M97.5206 27.1547C97.2424 26.4477 97.1149 25.7291 97.1381 24.9873C97.1613 24.2455 97.3236 23.5268 97.6365 22.8314C97.9495 22.1244 98.4015 21.4869 99.0042 20.9189C99.6069 20.3394 100.268 19.9221 100.986 19.6555C101.705 19.3889 102.435 19.2615 103.165 19.2846C103.896 19.3078 104.614 19.4817 105.31 19.7946C106.005 20.1076 106.631 20.5596 107.187 21.1507C107.744 21.7419 108.161 22.3909 108.439 23.098C108.717 23.805 108.845 24.5352 108.833 25.277C108.822 26.0188 108.648 26.7375 108.346 27.4329C108.045 28.1284 107.581 28.7658 106.979 29.3338C106.376 29.9017 105.715 30.3306 104.997 30.5972C104.278 30.8638 103.559 30.9913 102.818 30.9681C102.076 30.9449 101.357 30.7826 100.662 30.4697C99.9663 30.1567 99.3403 29.7047 98.784 29.1136C98.2276 28.5224 97.8104 27.8734 97.5322 27.1663L97.5206 27.1547ZM101.774 29.1136C102.458 29.299 103.154 29.3106 103.849 29.1136C104.545 28.9281 105.182 28.5688 105.75 28.024C106.33 27.4793 106.724 26.865 106.944 26.1811C107.164 25.4973 107.199 24.8134 107.048 24.118C106.898 23.4341 106.561 22.7966 106.017 22.2287C105.483 21.6723 104.881 21.2898 104.197 21.1044C103.513 20.9189 102.829 20.9189 102.134 21.1044C101.438 21.2898 100.801 21.6491 100.233 22.1939C99.6649 22.7271 99.2708 23.3414 99.0506 24.0368C98.8304 24.7323 98.7956 25.4161 98.9463 26.1C99.0969 26.7954 99.4331 27.4097 99.9663 27.9777C100.499 28.534 101.102 28.9165 101.786 29.102L101.774 29.1136Z" fill="#010101"/>
<path d="M17.3708 98.9014L20.0946 101.95C20.593 102.506 20.9291 103.097 21.1146 103.723C21.2884 104.337 21.2884 104.94 21.1146 105.531C20.9407 106.122 20.5814 106.656 20.025 107.142C19.4919 107.629 18.9123 107.919 18.3096 108.023C17.7069 108.128 17.1042 108.058 16.513 107.815C15.9219 107.571 15.3656 107.166 14.8672 106.609L13.3256 104.894L10.1845 107.699L9.00226 106.377L17.3708 98.9014ZM16.0726 105.589C16.4783 106.041 16.9303 106.285 17.4403 106.331C17.9503 106.377 18.4255 106.204 18.8544 105.809C19.2948 105.415 19.5266 104.963 19.5266 104.465C19.5266 103.955 19.3412 103.48 18.9355 103.039L17.3708 101.289L14.5079 103.851L16.0726 105.601V105.589Z" fill="#010101"/>
<path d="M24.9627 106.795L26.3768 107.873L20.5119 115.522L24.36 118.478L23.398 119.73L18.1358 115.696L24.9627 106.783V106.795Z" fill="#010101"/>
<path d="M35.1394 113.587L37.1099 114.56L35.6726 126.371L33.9688 125.525L34.3165 122.894L30.225 120.866L28.3241 122.732L26.6202 121.886L35.1394 113.575V113.587ZM34.5251 121.237L35.2437 115.847L31.3724 119.684L34.5135 121.237H34.5251Z" fill="#010101"/>
<path d="M43.1717 123.416L41.097 116.461L43.0326 116.994L44.4815 121.967L48.2716 118.432L50.2073 118.965L44.8872 123.891L43.5426 128.771L41.8388 128.307L43.1833 123.427L43.1717 123.416Z" fill="#010101"/>
<path d="M56.0722 119.707L57.9847 119.672L61.2301 128.632L64.1046 119.544L66.0171 119.51L62.2732 130.811L60.2796 130.857L56.0722 119.718V119.707Z" fill="#010101"/>
<path d="M68.683 118.919L70.4332 118.606L72.4384 129.652L70.6882 129.965L68.683 118.919Z" fill="#010101"/>
<path d="M74.0263 117.933L77.4803 116.681C78.5815 116.287 79.6014 116.16 80.5751 116.311C81.5487 116.461 82.3948 116.844 83.125 117.481C83.8553 118.119 84.4116 118.953 84.7941 120.008C85.1766 121.051 85.2809 122.048 85.1302 123.01C84.9795 123.972 84.5739 124.818 83.9248 125.548C83.2757 126.29 82.4064 126.847 81.3053 127.252L77.8512 128.504L74.0379 117.945L74.0263 117.933ZM80.7953 125.745C81.5371 125.479 82.1398 125.085 82.5803 124.575C83.0207 124.065 83.2873 123.474 83.38 122.79C83.4728 122.106 83.38 121.387 83.1018 120.611C82.8237 119.834 82.4296 119.22 81.9196 118.768C81.4096 118.316 80.8301 118.026 80.1578 117.922C79.4971 117.817 78.7901 117.899 78.0483 118.165L76.2401 118.826L78.9871 126.406L80.8069 125.745H80.7953Z" fill="#010101"/>
<path d="M85.3852 113.332L91.6674 109.426L92.5019 110.77L87.7265 113.737L89.4304 116.473L93.9507 113.668L94.7853 115.012L90.2649 117.817L91.9803 120.576L96.7557 117.609L97.5902 118.953L91.3081 122.859L85.3736 113.332H85.3852Z" fill="#010101"/>
<path d="M103.849 113.436C103.154 113.726 102.424 113.877 101.693 113.865C100.952 113.865 100.233 113.714 99.5259 113.425C98.8188 113.135 98.1698 112.683 97.5786 112.092C96.9875 111.5 96.5587 110.851 96.2689 110.133C95.9791 109.426 95.84 108.696 95.8516 107.965C95.8516 107.235 96.0139 106.516 96.3037 105.821C96.5934 105.126 97.0339 104.488 97.6134 103.909C98.193 103.341 98.8304 102.9 99.5259 102.61C100.221 102.321 100.952 102.17 101.693 102.17C102.435 102.17 103.154 102.321 103.861 102.61C104.568 102.9 105.205 103.352 105.796 103.943C106.388 104.534 106.816 105.184 107.106 105.891C107.396 106.598 107.535 107.328 107.535 108.058C107.535 108.8 107.384 109.518 107.095 110.214C106.805 110.909 106.364 111.558 105.785 112.126C105.205 112.694 104.568 113.135 103.861 113.425L103.849 113.436ZM105.704 109.136C105.878 108.452 105.866 107.757 105.669 107.061C105.472 106.366 105.089 105.74 104.545 105.184C103.988 104.616 103.362 104.233 102.679 104.036C101.995 103.839 101.299 103.816 100.615 103.978C99.9316 104.14 99.3057 104.5 98.7493 105.056C98.2045 105.601 97.8452 106.215 97.6714 106.899C97.4975 107.583 97.5207 108.267 97.7061 108.962C97.8916 109.658 98.2857 110.283 98.842 110.84C99.3984 111.396 100.013 111.779 100.708 111.987C101.404 112.196 102.087 112.207 102.771 112.045C103.455 111.883 104.069 111.524 104.626 110.979C105.171 110.434 105.541 109.82 105.715 109.124L105.704 109.136Z" fill="#010101"/>
</svg>
